# xmcd
#
# Track frame offsets:
#	150
#	10880
#	30992
#	48862
#	60660
#	77510
#	101167
#	114810
#	124755
#	147040
#	162805
#	177302
#
# Disc length: 2590 seconds
#
# Revision: 1
# Processed by: cddbd v1.5.2PL0 Copyright (c) Steve Scherf et al.
# Submitted via: audiograbber 1.83.01
#
DISCID=890a1c0c
DTITLE=Steve Young - Honky-Tonk Man
DYEAR=1975
DGENRE=Country
TTITLE0=Honky-Tonk Man
TTITLE1=Brain Cloudy Blues
TTITLE2=Rock, Salt And Nails
TTITLE3=Rockin' Chair Money
TTITLE4=Ramblin' Man
TTITLE5=The Night They Drove Ol' Dixie Down
TTITLE6=Traveling Kind [live]
TTITLE7=Sally Goodin' [live]
TTITLE8=Alabama Highway
TTITLE9=Vision Of A Child
TTITLE10=We've Been Together On This Earth Before
TTITLE11=The White Trash Song
EXTD=
EXTT0=
EXTT1=
EXTT2=
EXTT3=
EXTT4=
EXTT5=
EXTT6=
EXTT7=
EXTT8=
EXTT9=
EXTT10=
EXTT11=
PLAYORDER=
